<svg xmlns="http://www.w3.org/2000/svg" width="32" height="32" viewBox="0 0 32 32">
  <defs>
    <style>
      .shield { fill: #00ff88; }
      .house { fill: #00ff88; stroke: #1a1a1a; stroke-width: 1.5; }
      .heart { fill: #00ff88; }
    </style>
  </defs>
  <!-- Shield background -->
  <path class="shield" d="M16 2 C8 2, 4 6, 4 14 C4 22, 16 30, 16 30 S28 22, 28 14 C28 6, 24 2, 16 2 Z" fill="#00ff88" stroke="#00ff88" stroke-width="2"/>
  <!-- House -->
  <path class="house" d="M12 18 L12 24 L20 24 L20 18 L24 18 L16 10 L8 18 Z" fill="none" stroke="#1a1a1a" stroke-width="1.5"/>
  <!-- Heart -->
  <path class="heart" d="M16 22 C14 20, 10 18, 10 15 C10 13, 12 13, 14 15 C14 15, 16 17, 16 17 S18 15, 18 15 C20 13, 22 13, 22 15 C22 18, 18 20, 16 22 Z" fill="#1a1a1a"/>
</svg>
